<svg xmlns="http://www.w3.org/2000/svg" viewBox="0 0 2489.5 3064.8" xmlns:v="https://vecta.io/nano"><path d="M634.6 172.7c-51.2 6.4-177.6 37.6-210.4 51.2-60.8 26.4-144 85.6-170.4 120.8-50.4 68-84.8 172.8-102.4 309.6-14.4 108.8-10.4 317.6 7.2 440.8 16.8 112.8 68.8 291.2 82.4 282.4 4.8-2.4 5.6-.8 2.4 4-6.4 11.2 49.6 107.2 60 100.8 4-2.4 6.4-.8 5.6 4-1.6 4 4.8 13.6 13.6 20.8s10.4 10.4 4 7.2c-10.4-5.6-10.4-4-.8 7.2 5.6 7.2 14.4 11.2 20 8 4.8-2.4 6.4-2.4 3.2 1.6-8.8 9.6 9.6 37.6 21.6 32.8 5.6-1.6 15.2 2.4 21.6 9.6 8.8 10.4 8.8 11.2-.8 6.4-7.2-4.8-9.6-4-7.2 4 2.4 6.4 10.4 10.4 17.6 10.4 7.2-.8 12.8 4 12.8 11.2 0 6.4 2.4 10.4 4.8 7.2 2.4-2.4 16.8 8 32 23.2 16.8 17.6 31.2 26.4 36.8 22.4 5.6-3.2 8-2.4 4 .8-8 8.8 33.6 36 47.2 30.4 6.4-2.4 13.6 1.6 16 8.8s8.8 10.4 13.6 7.2c4-2.4 12.8 1.6 19.2 9.6 5.6 8.8 10.4 12 10.4 8 0-3.2 7.2 0 15.2 7.2 8.8 8 20 12 24.8 8.8 4.8-2.4 7.2-.8 6.4 5.6-1.6 6.4 4.8 10.4 15.2 9.6 9.6 0 16 2.4 14.4 5.6-5.6 8 20 16 29.6 9.6 4.8-2.4 6.4-.8 4 3.2-6.4 10.4 62.4 37.6 75.2 29.6 5.6-3.2 7.2-2.4 4.8 2.4-6.4 10.4 199.2 93.6 212 85.6 5.6-4 6.4-2.4 2.4 4.8-4.8 8-2.4 9.6 10.4 6.4 9.6-3.2 16-1.6 13.6 1.6-4.8 8 43.2 25.6 52.8 19.2 4-2.4 7.2-.8 7.2 2.4 0 8.8 48 27.2 56.8 21.6 4-2.4 7.2-.8 7.2 4 0 10.4 98.4 40.8 133.6 40.8 47.2 0 96.8-16.8 127.2-43.2 79.2-68.8 23.2-215.2-139.2-361.6-45.6-41.6-86.4-72.8-91.2-70.4-4.8 3.2-6.4 1.6-4-2.4 3.2-4.8-12-22.4-32.8-39.2-137.6-110.4-212-194.4-250.4-280-25.6-56.8-24.8-144.8.8-199.2 69.6-143.2 267.2-202.4 455.2-136.8 32.8 11.2 60.8 19.2 63.2 16.8 1.6-1.6 8.8 2.4 15.2 8.8 7.2 6.4 17.6 10.4 24 8s9.6-1.6 7.2 2.4c-6.4 10.4 120 65.6 136 59.2 8.8-3.2 12-1.6 8.8 3.2-6.4 10.4 16 20.8 28 12.8 4.8-2.4 6.4-.8 4 3.2-6.4 10.4 16 20.8 28 12.8 4.8-2.4 6.4-.8 4 3.2-7.2 11.2 14.4 19.2 32 12.8 8-3.2 11.2-1.6 8 3.2-6.4 10.4 16 20.8 28 12.8 5.6-3.2 6.4-.8 2.4 5.6-4.8 8-3.2 9.6 8.8 4.8 8-3.2 12-3.2 8.8 0-8 8 122.4 66.4 136.8 60.8 7.2-2.4 10.4-.8 7.2 4s0 11.2 7.2 13.6c8 3.2 10.4 1.6 7.2-5.6-3.2-4.8 0-3.2 6.4 4 6.4 8 19.2 14.4 28.8 14.4 8.8 0 16.8 3.2 16.8 8 0 4 5.6 4.8 13.6 2.4 8-3.2 11.2-1.6 8 3.2s0 11.2 7.2 13.6c17.6 6.4 20.8 6.4 16-2.4-3.2-4 1.6-5.6 10.4-3.2 10.4 2.4 16-1.6 20.8-15.2l5.6-18.4 6.4 20c6.4 19.2 6.4 19.2 7.2-4.8 2.4-73.6-72-314.4-95.2-308.8-4.8.8-7.2-1.6-4-6.4 17.6-28.8-209.6-316-236.8-299.2-5.6 3.2-8 2.4-4-3.2 2.4-4-8.8-18.4-24.8-32-208.8-163.2-452.8-264-722.4-296.8-63.2-8-286.4-10.4-340-3.2m473.6 837.6c-46.4 16.8-61.6 34.4-61.6 70.4 0 16.8 4.8 42.4 10.4 56.8 13.6 32 92.8 119.2 102.4 112.8 4-2.4 6.4 0 5.6 6.4-1.6 5.6 4 9.6 11.2 9.6 8-.8 12.8 2.4 12 8-.8 4.8 3.2 8 8.8 6.4 6.4-.8 8.8 1.6 6.4 5.6-6.4 9.6 16.8 27.2 27.2 20.8 4-2.4 8 .8 8 8 0 8 4 10.4 9.6 7.2 4.8-3.2 6.4-2.4 3.2 3.2-6.4 10.4 71.2 77.6 89.6 77.6 8 0 12.8 4 12 9.6-1.6 6.4 3.2 8 11.2 4.8 8.8-3.2 11.2-2.4 7.2 4-5.6 8.8 4.8 13.6 21.6 10.4 4-.8 4.8 2.4 1.6 7.2-2.4 4 1.6 8 9.6 8.8 8 0 10.4 2.4 4.8 4.8-5.6 1.6-10.4 7.2-10.4 11.2s4.8 6.4 10.4 5.6c4.8-1.6 8.8 1.6 8 6.4-.8 5.6 19.2 29.6 45.6 54.4 25.6 24.8 44 44.8 41.6 44.8-3.2.8 2.4 7.2 12 15.2s15.2 16.8 12.8 20c-3.2 2.4-.8 4.8 4.8 4.8s8 3.2 5.6 6.4c-5.6 9.6 23.2 51.2 30.4 44 3.2-3.2 3.2 0 .8 6.4-4.8 12 22.4 82.4 28.8 76 1.6-1.6 3.2 6.4 4 17.6 0 12 5.6 48.8 11.2 81.6 14.4 83.2 6.4 283.2-14.4 348-20.8 65.6-36.8 95.2-76 138.4-44 46.4-78.4 68-144.8 88.8-171.2 52.8-355.2-28.8-431.2-189.6-21.6-46.4-24.8-61.6-24.8-115.2l.8-61.6-40.8-19.2c-22.4-10.4-64-28-92.8-37.6-28.8-10.4-55.2-21.6-60-24-4-3.2-22.4-10.4-40-16-69.6-22.4-269.6-125.6-292-151.2-2.4-2.4-21.6-19.2-44-36.8-39.2-31.2-129.6-123.2-142.4-144.8-11.2-20-19.2-12-28 30.4-21.6 100.8-28 180-28.8 322.4 0 126.4 3.2 167.2 17.6 243.2 24 118.4 56 219.2 67.2 212 4.8-3.2 6.4-2.4 4 3.2-8 12 2.4 34.4 12.8 28 4-2.4 5.6-.8 3.2 4-7.2 11.2 2.4 34.4 11.2 28.8 4-2.4 5.6.8 3.2 6.4-1.6 5.6 5.6 20.8 16.8 34.4 12 12.8 18.4 18.4 15.2 12-5.6-9.6-4.8-10.4 4.8-1.6 6.4 5.6 11.2 16 11.2 24 0 7.2 4.8 12.8 10.4 11.2 4.8-.8 9.6 4.8 9.6 13.6 0 17.6 18.4 35.2 28 26.4 4-3.2 4-1.6 1.6 3.2-6.4 11.2 20.8 37.6 30.4 29.6 3.2-4 4-2.4 1.6 2.4-7.2 12 30.4 46.4 43.2 39.2 5.6-4 8-3.2 4.8 1.6-6.4 10.4 15.2 29.6 25.6 23.2 4-3.2 10.4-.8 13.6 4 4 6.4 1.6 8-5.6 4-6.4-3.2-4.8-.8 3.2 6.4 8.8 6.4 20.8 9.6 28 7.2 7.2-3.2 10.4-1.6 7.2 3.2-7.2 11.2 64.8 52.8 80 46.4 6.4-1.6 9.6-.8 7.2 2.4-4.8 8 96 49.6 175.2 72.8 126.4 36.8 192 44.8 380 44.8 158.4 0 189.6-2.4 264-18.4 100.8-22.4 120.8-28 204-59.2 120.8-44.8 315.2-159.2 309.6-182.4-.8-4.8 1.6-7.2 6.4-4 4 2.4 16.8-4 28-15.2 11.2-12 23.2-20.8 27.2-20.8 8 0 96.8-97.6 137.6-152 18.4-24 52-81.6 75.2-128 156-310.4 173.6-614.4 48-804-66.4-99.2-141.6-143.2-584-340l-246.4-112c-39.2-18.4-76-31.2-82.4-28.8s-9.6 1.6-7.2-3.2c2.4-4-12.8-15.2-33.6-24-49.6-22.4-160.8-29.6-204.8-12.8" fill="#000019"/><path d="M823.4 7.1c-.8 9.6-13.6 12-66.4 12.8-77.6.8-162.4 8-174.4 15.2-4 2.4-8 0-8-5.6 0-8-1.6-8-6.4-.8-3.2 5.6-16.8 11.2-30.4 13.6-12.8 1.6-28.8 4.8-35.2 7.2-26.4 8.8-108.8 24.8-117.6 23.2-5.6-1.6-8 2.4-5.6 8.8 4 10.4-24 22.4-56.8 24.8-4 .8-12 6.4-17.6 12.8s-10.4 9.6-10.4 6.4-9.6 3.2-20.8 13.6c-12 11.2-26.4 20-31.2 20-5.6 0-12.8 5.6-15.2 12.8-2.4 6.4-8 9.6-12.8 7.2-4-2.4-8-1.6-8 3.2 0 4-16 23.2-36 42.4-19.2 19.2-36 36.8-36 40s-10.4 20.8-23.2 40C35.4 418.3 10.6 526.3 1.8 779.1c-8 236 10.4 408 61.6 572 22.4 72.8 29.6 134.4 17.6 147.2-4 3.2-6.4 8.8-7.2 11.2-3.2 19.2-22.4 57.6-28.8 57.6-4 0-4.8 3.2-2.4 8 2.4 4 .8 21.6-3.2 37.6-21.6 84-36 292.8-29.6 437.6 3.2 65.6 6.4 121.6 8.8 124 1.6 3.2 4.8 24.8 8 48.8 6.4 59.2 16.8 104.8 40 177.6 11.2 33.6 20 67.2 20 74.4 0 6.4 3.2 12 6.4 12s10.4 12 16 26.4c12.8 35.2 89.6 156 118.4 187.2 58.4 61.6 75.2 81.6 75.2 90.4 0 4.8 3.2 6.4 8 4 4-2.4 12 2.4 17.6 12 5.6 8.8 13.6 16 17.6 16s15.2 7.2 24 15.2c61.6 57.6 324.8 172 435.2 189.6 16.8 2.4 32 6.4 36 8.8 3.2 1.6 19.2 4.8 36 6.4 16 1.6 52.8 6.4 81.6 12 57.6 10.4 288.8 13.6 368 4 58.4-6.4 84-10.4 84-12 0-.8 7.2-2.4 16-4 61.6-9.6 86.4-14.4 184-41.6 8.8-2.4 25.6-5.6 38.4-8 12-2.4 21.6-7.2 21.6-10.4s11.2-8 24.8-11.2c13.6-2.4 34.4-11.2 45.6-20 12-8 23.2-15.2 25.6-16s12-3.2 22.4-5.6c9.6-3.2 17.6-8 17.6-12s7.2-7.2 16-7.2 16-3.2 16-7.2 11.2-9.6 24-12.8c13.6-3.2 24-8.8 24-12.8s4.8-7.2 10.4-7.2c4.8 0 18.4-9.6 28.8-20 10.4-11.2 23.2-20 29.6-20s11.2-4 11.2-8c0-4.8 3.2-8 8-8 4 0 15.2-6.4 24.8-13.6 32.8-28 46.4-38.4 66.4-53.6 11.2-8 20.8-20 20.8-26.4s3.2-9.6 7.2-6.4c4 2.4 16-4 26.4-14.4 39.2-39.2 116.8-131.2 143.2-169.6 15.2-22.4 29.6-41.6 33.6-42.4 3.2-1.6 5.6-9.6 5.6-16.8 0-8 7.2-20.8 16-28.8s16-19.2 16-24.8 12.8-33.6 28-61.6 25.6-53.6 22.4-56c-2.4-3.2.8-5.6 8-5.6 8 0 11.2-4 8.8-12-2.4-6.4.8-19.2 8-29.6 7.2-9.6 12.8-22.4 12.8-27.2s6.4-23.2 13.6-40c7.2-17.6 12.8-34.4 12-38.4-1.6-3.2 1.6-11.2 6.4-16.8s8-13.6 7.2-16.8c-1.6-4 2.4-27.2 7.2-51.2 36-169.6 23.2-404-28-512-40.8-88-64-124-106.4-168-11.2-11.2-28.8-31.2-40-44-11.2-13.6-32.8-31.2-48.8-39.2l-28.8-15.2-4.8-112.8c-2.4-62.4-8.8-134.4-14.4-160.8-10.4-56.8-11.2-60.8-16.8-76l-23.2-64c-10.4-28.8-26.4-66.4-36.8-84-9.6-17.6-24-44.8-31.2-60-8-15.2-24-43.2-36.8-61.6-12-18.4-22.4-36.8-22.4-40.8 0-4.8-20.8-31.2-45.6-59.2-25.6-28-59.2-66.4-74.4-86.4s-29.6-37.6-32.8-40c-11.2-8.8-72.8-60.8-92-78.4-11.2-9.6-30.4-23.2-44-29.6-12.8-7.2-23.2-16-23.2-20 0-4.8-5.6-8-12-8s-12-4-12-8c0-4.8-4-8-8.8-8s-22.4-11.2-39.2-24c-16.8-13.6-33.6-24-37.6-24s-15.2-7.2-24.8-16-19.2-16-21.6-16c-22.4.8-28-1.6-28-13.6 0-7.2-2.4-11.2-4.8-8-2.4 2.4-16.8-2.4-32-11.2-15.2-8-32-15.2-36.8-15.2s-24-6.4-41.6-15.2c-78.4-36-198.4-74.4-275.2-88.8-24.8-4-54.4-9.6-65.6-12-64.8-12.8-114.4-17.6-193.6-20.8-41.6-.8-54.4-4-56.8-14.4-3.2-10.4-4-10.4-4.8-.8zm227.2 168c209.6 37.6 387.2 107.2 548 212.8 92.8 60.8 144.8 105.6 227.2 196 114.4 125.6 197.6 277.6 228.8 420.8 14.4 65.6 21.6 170.4 12 180-5.6 5.6-86.4-29.6-433.6-188.8-150.4-68.8-296-131.2-324-138.4-148-39.2-315.2 7.2-380.8 106.4-33.6 50.4-44 92-40 156 7.2 98.4 61.6 174.4 217.6 305.6l105.6 89.6c166.4 151.2 198.4 189.6 228 273.6 16.8 49.6 20 111.2 6.4 140-20.8 46.4-121.6 82.4-196.8 69.6-72.8-11.2-572-209.6-690.4-273.6-134.4-72.8-242.4-172-305.6-281.6-93.6-160.8-137.6-424-119.2-711.2 14.4-214.4 55.2-337.6 140.8-424.8 83.2-84.8 205.6-130.4 408-151.2 72-7.2 283.2 3.2 368 19.2zm320.8 862.4l211.2 96 156 69.6 120 53.6c241.6 108 329.6 161.6 398.4 245.6 143.2 174.4 135.2 508-19.2 820.8-56 112.8-95.2 168-184.8 258.4-85.6 86.4-129.6 120-240 182.4-220 125.6-432.8 176.8-698.4 168.8-155.2-5.6-246.4-21.6-378.4-66.4-143.2-48.8-271.2-117.6-352-191.2-120-108.8-206.4-300-234.4-520.8-12-96.8-5.6-351.2 12-442.4 14.4-76 27.2-120.8 35.2-120.8 3.2 0 17.6 16 31.2 34.4 44 58.4 135.2 145.6 192 184 73.6 48.8 161.6 92 308 150.4l166.4 68 44 20-2.4 63.2c-3.2 57.6-.8 68.8 21.6 116 34.4 73.6 100.8 138.4 170.4 166.4 149.6 59.2 283.2 36.8 380.8-65.6 73.6-76.8 98.4-160.8 98.4-338.4 0-124.8-5.6-171.2-28.8-242.4-43.2-128-127.2-227.2-336.8-398.4-83.2-68-177.6-165.6-194.4-200.8-31.2-63.2-16.8-120 36.8-143.2 45.6-19.2 56.8-20.8 123.2-18.4 55.2 3.2 71.2 8 164 51.2zm-255.2 1090.4c83.2 33.6 229.6 34.4 292 2.4 32-16 38.4-13.6 38.4 13.6 0 48.8-35.2 98.4-76.8 106.4-8.8 1.6-24 5.6-35.2 8-63.2 15.2-156 4-198.4-24-26.4-17.6-49.6-59.2-49.6-89.6 0-28.8-.8-28.8 29.6-16.8" fill="#fff"/></svg>