<svg xmlns="http://www.w3.org/2000/svg" viewBox="0 0 640 640">
    <path fill="#4e739e" fill-rule="evenodd" stroke="#4e739e"
        d="M0 320.002v320.001l320.25-.251 320.25-.252.252-319.75L641.003 0H0v320.002m.494.498c0 176 .115 247.851.256 159.669.141-88.182.141-232.182 0-320C.609 72.351.494 144.5.494 320.5m233.867-85.601c-17.692 5.064-32.615 17.196-40.518 32.941l-3.343 6.66v130l2.337 6.766c6.075 17.588 23.517 33.143 42.754 38.128 6.238 1.616 155.376 2.571 163.409 1.046 12.819-2.433 28.143-14.883 34.737-28.22 5.225-10.569 5.614-26.95.869-36.614-5.716-11.641-8.587-13.795-95.606-71.732-17.115-11.395-31.599-21.784-34.5-24.747-8.273-8.45-15.567-22.394-13.037-24.924 1.806-1.805 74.045-.662 79.121 1.252 10.207 3.849 18.292 11.655 20.477 19.773l1.016 3.772h43.027l-.637-8.75c-1.02-14.012-3.482-19.498-12.837-28.611-8.696-8.47-19.275-14.164-31.798-17.117-10.298-2.427-146.828-2.096-155.471.377M261 263.977c-23.738.696-25.825 1.145-35.642 7.661-8.659 5.747-19.33 21.139-18.06 26.047.365 1.411.496 1.301.586-.494.064-1.27.561-2.034 1.105-1.698.579.358.747-.135.406-1.191-.32-.991.473-.233 1.762 1.685 2.331 3.47 2.345 3.672 2.673 39 .334 35.96-.298 54.013-1.892 54.013-.481 0-.616-.675-.3-1.5.317-.825.15-1.5-.371-1.5-2.012 0-3.233-14.625-3.495-41.845-.149-15.589-.589-28.858-.976-29.484-.387-.627-.612 14.603-.5 33.844.228 39.018-.194 36.419 7.893 48.625 4.7 7.095 10.504 12.09 18.787 16.17l6.476 3.19 69.024.576c74.051.617 72.944.679 78.355-4.374 10.011-9.347 5.71-18.791-14.605-32.068-38.753-25.328-56.378-36.72-61.899-40.009-7.63-4.544-15.822-13.343-19.204-20.625-2.79-6.008-3.07-11.277-2.26-42.5l.364-14-3.364-.077c-1.849-.042-13.038.207-24.863.554m-54.25 39.594c-.412.419-.736 2.6-.72 4.846.025 3.291.231 3.739 1.062 2.311 1.147-1.97.842-8.36-.342-7.157" />
    <path fill="#070d17" fill-rule="evenodd" stroke="#070d17"
        d="M240.5 265.402c-2.75.678-6.35 1.986-8 2.907l-3 1.674 3.114-.482 3.115-.482.186 8.458.186 8.458-4.3 4.754a1674.033 1674.033 0 0 0-6.09 6.764c-3.328 3.735-7.016 12.657-7.389 17.872l-.37 5.175 2.371-5c4.824-10.174 18.101-21.272 29.001-24.242 7.67-2.089 36.61-2.973 37.762-1.153.549.867.889-2.052.899-7.715.008-5.011.301-11.199.651-13.75l.636-4.64-21.886.085c-13.675.053-23.762.547-26.886 1.317m51.114 1.348c1.528 6.442 6.031 14.414 11.249 19.913 2.001 2.109 2.73 2.165 29.345 2.259 32.143.114 35.39.424 43.292 4.134 7.005 3.289 11.791 7.888 14.881 14.3l2.209 4.584 20.977.48c11.537.264 21.581.107 22.319-.35 1.285-.793 1.019-12.249-.465-20.07l-.474-2.5-21.474-.368-21.473-.369-.1 4.369c-.055 2.402-.441 5.493-.859 6.868l-.76 2.5-1.305-3c-1.556-3.575-1.504-12.556.078-13.533 1.518-.939 1.522-.918-.872-5.61-3.041-5.961-10.362-11.806-17.875-14.273-5.965-1.958-8.555-2.084-42.847-2.084h-36.498l.652 2.75m1.373 60.25c.475 1.925 1.107 5.3 1.405 7.5 2.173 16.094 9.689 25.081 35.065 41.931 9.373 6.224 19.743 12.819 23.043 14.654 7.956 4.425 28.842 18.417 30.533 20.455 1.123 1.353 1.107 1.759-.097 2.521-.944.597-1.019.914-.219.924 3.253.041 8.283-6.983 8.283-11.568 0-8.368-3.713-12.545-21.275-23.931a6652.761 6652.761 0 0 1-23.5-15.33c-6.999-4.588-19.803-12.848-28.453-18.354-14.609-9.299-19.673-13.486-23.961-19.811l-1.688-2.491.864 3.5m-102.921 78.201c-.036.935.429 4.01 1.035 6.833l1.349 6.299c.136.642.496 1.842.8 2.667.304.825 1.325 4.425 2.268 8 5.618 21.28 23.527 37.635 47.546 43.419 11.435 2.754 147.726 2.339 157.956-.481 11.455-3.157 17.801-6.673 25.095-13.904 11.913-11.809 15.906-23.888 14.393-43.534l-.77-10-1.671 7c-4.603 19.292-20.956 35.451-39.866 39.395-9.202 1.919-150.364 1.502-159.922-.472-21.661-4.475-41.47-22.093-46.698-41.535-.797-2.964-1.479-4.623-1.515-3.687" />
</svg>